<svg width="251" height="56" viewBox="0 0 251 56" fill="none" xmlns="http://www.w3.org/2000/svg">
<g clip-path="url(#clip0_1146_165)">
<path d="M5.94329 18.8214L6.7458 14.5628L3.40782 16.4542C2.34221 17.1075 1.44573 18.0019 0.790934 19.0651C0.756644 19.1371 0.717797 19.2068 0.674628 19.2739C0.178357 20.2021 -0.055665 21.2473 -0.00239974 22.2979C0.0508655 23.3485 0.389414 24.3649 0.977024 25.2383L1.57018 26.271L1.67486 26.4567L5.94329 33.976L6.38525 34.7418L7.99028 37.5847L11.3515 19.4364H5.81535L5.94329 18.8214ZM45.3594 13.6577L44.4057 11.9983L43.3822 10.1881L40.7072 5.34935L39.5441 3.39991C39.5441 3.39991 36.3689 -2.20473 30.7514 0.974716L22.924 5.40737L18.609 7.84417L10.107 12.6598L9.45573 13.0311H24.7849L24.6686 13.6345L23.6567 19.0186L23.5869 19.4364H17.9461L13.4799 43.5839L13.4101 44.0017H11.6307L13.8172 47.8541L14.7244 49.4322L16.4806 52.5189C16.4806 52.5189 19.6674 58.1351 25.285 54.944L32.147 51.0568L37.9623 47.7613L42.9519 44.9416L44.4057 44.0945H39.7534L39.8698 43.4911L45.3594 13.6577ZM28.3671 44.4658C27.0907 44.4954 25.8233 44.2458 24.6539 43.7347C23.4846 43.2235 22.4415 42.4631 21.5981 41.5068C20.8447 40.5934 20.3071 39.5225 20.0252 38.3734C19.7433 37.2244 19.7244 36.0268 19.9698 34.8695L20.0512 34.4633H26.8202L26.7039 35.0551C26.6122 35.4258 26.6053 35.8123 26.6838 36.1859C26.7624 36.5596 26.9243 36.9108 27.1575 37.2134C27.4722 37.5411 27.855 37.796 28.2789 37.9604C28.7028 38.1248 29.1577 38.1946 29.6116 38.1649C30.5727 38.1706 31.5065 37.8461 32.2562 37.246C33.0059 36.6459 33.5259 35.8068 33.7288 34.8695C34.2289 32.2238 32.4145 31.3883 29.8093 30.46C27.9325 30.0163 26.2339 29.0173 24.9361 27.5939C24.2917 26.7294 23.8383 25.7384 23.6057 24.6863C23.3732 23.6343 23.3668 22.545 23.5869 21.4903C24.1339 19.0399 25.4936 16.8454 27.446 15.2618C29.3984 13.6782 31.8293 12.7982 34.3452 12.7642C35.501 12.7452 36.6469 12.9795 37.702 13.4507C38.757 13.9219 39.6956 14.6184 40.4513 15.4911C41.1595 16.348 41.6645 17.3536 41.9283 18.4326C42.1922 19.5117 42.2081 20.6363 41.9749 21.7223L41.8702 22.0472H35.2175L35.2873 21.4787C35.3402 21.1696 35.3249 20.8527 35.2425 20.5501C35.1602 20.2475 35.0127 19.9664 34.8104 19.7265C34.582 19.4835 34.3038 19.2924 33.9947 19.1663C33.6856 19.0402 33.353 18.9819 33.0193 18.9954C32.2753 19.0136 31.5622 19.2958 31.008 19.7913C30.4538 20.2869 30.0947 20.9633 29.9954 21.6991C29.6697 23.3005 30.763 24.0199 32.7635 24.7509L33.3799 24.983C35.1439 25.4888 36.7781 26.3674 38.1717 27.5591C39.1389 28.4504 39.844 29.5883 40.2108 30.8499C40.5777 32.1116 40.5925 33.4492 40.2536 34.7186C39.6506 37.4357 38.1519 39.8726 35.9971 41.6397C33.8422 43.4067 31.1557 44.4018 28.3671 44.4658ZM55.92 32.862C55.7763 32.2294 55.5535 31.6174 55.257 31.0402C55.1873 30.9242 55.1407 30.8081 55.0709 30.6921L52.3378 25.7837L51.0584 23.6254L50.3838 22.465L46.5806 42.9341L49.8721 41.0775L52.6402 39.453C53.1554 39.1207 53.6314 38.7315 54.0591 38.2926C54.8101 37.6201 55.3755 36.7666 55.7014 35.8138C56.0272 34.8609 56.1025 33.8406 55.92 32.8504V32.862Z" fill="white"/>
<path d="M42.126 49.4903C42.7714 49.4971 43.4003 49.6945 43.9334 50.0575C44.4664 50.4204 44.8799 50.9327 45.1216 51.5298C45.3632 52.1268 45.4223 52.7819 45.2913 53.4124C45.1604 54.0429 44.8452 54.6206 44.3857 55.0727C43.9261 55.5247 43.3426 55.8309 42.7089 55.9526C42.0751 56.0743 41.4194 56.0061 40.8245 55.7566C40.2295 55.507 39.722 55.0873 39.3658 54.5503C39.0096 54.0134 38.8207 53.3832 38.823 52.7393C38.8229 52.3087 38.9087 51.8824 39.0752 51.4851C39.2418 51.0879 39.4858 50.7276 39.7932 50.4253C40.1005 50.123 40.465 49.8847 40.8655 49.7241C41.266 49.5636 41.6945 49.4841 42.126 49.4903ZM42.126 55.4546C42.6671 55.4685 43.2 55.3211 43.6566 55.0312C44.1132 54.7414 44.4729 54.3224 44.6896 53.8276C44.9064 53.3328 44.9703 52.7848 44.8733 52.2536C44.7763 51.7224 44.5228 51.232 44.1451 50.8453C43.7674 50.4586 43.2827 50.193 42.753 50.0824C42.2232 49.9719 41.6725 50.0214 41.1711 50.2248C40.6697 50.4281 40.2405 50.7759 39.9382 51.2238C39.636 51.6717 39.4744 52.1994 39.4743 52.7393C39.4633 53.093 39.5239 53.4452 39.6524 53.775C39.7809 54.1048 39.9747 54.4054 40.2222 54.6588C40.4697 54.9122 40.7658 55.1133 41.0929 55.25C41.42 55.3868 41.7714 55.4563 42.126 55.4546ZM40.8699 50.8711H42.3121C43.2077 50.8711 43.638 51.2192 43.638 51.9387C43.638 52.6581 43.3356 52.8438 42.6611 52.9714L43.7311 54.6191H43.0914L42.1028 52.9946H41.4398V54.6191H40.8699V50.8711ZM42.126 52.5189C42.8123 52.5189 43.0449 52.368 43.0449 51.9039C43.0449 51.4397 42.7774 51.3469 42.2191 51.3469H41.4398V52.5073L42.126 52.5189Z" fill="white"/>
<path d="M64.6545 34.3589H66.7131V38.2926L70.3186 34.3821H72.5633L69.3068 38.0489L72.9122 44.0945H70.5861L67.8297 39.3137L66.6666 40.4741V44.0945H64.6545V34.3589Z" fill="white"/>
<path d="M73.7613 36.9813H75.5989V37.9677C75.8488 37.5781 76.198 37.2617 76.6108 37.051C76.9726 36.8707 77.3696 36.7716 77.7738 36.7609C78.1041 36.7357 78.436 36.7794 78.7484 36.8893C79.0608 36.9992 79.3468 37.1728 79.5882 37.3991C80.0678 37.972 80.3055 38.7084 80.2511 39.4529V44.0945H78.3321V39.6734C78.3743 39.3063 78.2745 38.9369 78.053 38.6407C77.8441 38.4502 77.568 38.3501 77.2853 38.3622C77.0666 38.3594 76.8494 38.3988 76.6457 38.4782C76.4631 38.5465 76.296 38.6504 76.1542 38.7839C76.0124 38.9174 75.8988 39.0778 75.8199 39.2557C75.7275 39.4347 75.6834 39.6347 75.6919 39.8359V44.0945H73.7613V36.9813Z" fill="white"/>
<path d="M85.2639 44.3498C84.7735 44.3826 84.2818 44.3117 83.8208 44.1417C83.3598 43.9717 82.94 43.7065 82.5889 43.3634C81.9162 42.5832 81.5779 41.5705 81.6468 40.5437C81.637 40.0066 81.7237 39.4722 81.9027 38.9656C82.0556 38.5311 82.3017 38.1351 82.6238 37.8052C82.9512 37.4743 83.3485 37.2206 83.7868 37.0626C84.2618 36.8808 84.7669 36.7902 85.2755 36.7957C85.7918 36.7903 86.3045 36.8809 86.7875 37.0626C87.2245 37.2233 87.6213 37.4767 87.9506 37.8052C88.2687 38.1382 88.5142 38.5333 88.6717 38.9656C88.841 39.4743 88.9235 40.0077 88.9159 40.5437C88.9198 41.0879 88.8333 41.629 88.6601 42.145C88.4976 42.5776 88.2483 42.9725 87.9273 43.3054C87.5994 43.6384 87.2024 43.8958 86.7643 44.0597C86.2864 44.2481 85.7777 44.3465 85.2639 44.3498ZM85.2639 42.8181C85.503 42.8333 85.7421 42.7869 85.958 42.6832C86.1739 42.5796 86.3595 42.4222 86.4968 42.2263C86.7962 41.7179 86.9378 41.1324 86.9038 40.5437C86.9398 39.9585 86.7979 39.3762 86.4968 38.8728C86.3574 38.6798 86.1711 38.5253 85.9554 38.4238C85.7398 38.3223 85.5018 38.2772 85.2639 38.2926C85.0383 38.2855 84.8143 38.3336 84.6116 38.4327C84.4089 38.5319 84.2335 38.6789 84.1009 38.8612C83.7941 39.3623 83.6518 39.9464 83.6938 40.5321C83.6546 41.1234 83.7923 41.713 84.0892 42.2263C84.2212 42.4137 84.3974 42.5657 84.6023 42.669C84.8072 42.7722 85.0344 42.8234 85.2639 42.8181Z" fill="white"/>
<path d="M89.4393 36.9814H91.5212L92.5214 41.7737L93.8939 37.1322H95.5687L96.8713 41.7737L97.8832 37.0278H99.8836L97.8017 44.0945H95.9292L94.6498 39.453L93.3588 44.0945H91.5212L89.4393 36.9814Z" fill="white"/>
<path d="M100.826 34.3589H102.745V44.0945H100.826V34.3589Z" fill="white"/>
<path d="M111.026 41.9014C110.948 42.6091 110.603 43.2606 110.06 43.7232C109.403 44.1852 108.606 44.4065 107.804 44.3498C107.312 44.3843 106.818 44.3142 106.355 44.1442C105.892 43.9742 105.47 43.7081 105.117 43.3635C104.485 42.5906 104.165 41.6095 104.222 40.6134C104.212 40.0687 104.299 39.5267 104.478 39.012C104.639 38.5789 104.888 38.1837 105.21 37.8516C105.535 37.5147 105.933 37.2566 106.373 37.0974C106.839 36.9251 107.331 36.8386 107.827 36.8421C108.285 36.8114 108.743 36.8806 109.171 37.045C109.599 37.2093 109.986 37.4648 110.305 37.7936C110.884 38.5102 111.178 39.4152 111.13 40.3349V41.1007H106.141C106.13 41.5902 106.285 42.0689 106.583 42.4584C106.739 42.6256 106.931 42.7554 107.144 42.8378C107.358 42.9202 107.587 42.9531 107.816 42.9341C107.967 42.9607 108.122 42.9572 108.272 42.9237C108.422 42.8902 108.564 42.8274 108.689 42.7389C108.814 42.6504 108.921 42.5381 109.003 42.4082C109.084 42.2784 109.139 42.1338 109.165 41.9826L111.026 41.9014ZM109.258 39.7663C109.284 39.3484 109.156 38.9354 108.897 38.6059C108.747 38.4546 108.564 38.3386 108.363 38.2664C108.162 38.1942 107.947 38.1674 107.734 38.1882C107.503 38.1857 107.274 38.2291 107.06 38.3158C106.877 38.3965 106.711 38.5106 106.571 38.6523C106.44 38.7938 106.337 38.9593 106.269 39.1397C106.195 39.337 106.152 39.5444 106.141 39.7547L109.258 39.7663Z" fill="white"/>
<path d="M117.469 43.1894C117.228 43.5552 116.898 43.8537 116.509 44.0567C116.12 44.2597 115.686 44.3606 115.248 44.3498C114.817 44.3801 114.386 44.3038 113.992 44.1277C113.599 43.9515 113.255 43.681 112.991 43.3402C112.458 42.5041 112.201 41.5217 112.259 40.5321C112.253 40.0141 112.324 39.4981 112.468 39.0004C112.598 38.5781 112.807 38.1843 113.084 37.84C113.339 37.5077 113.67 37.2412 114.05 37.0626C114.457 36.8728 114.903 36.7776 115.352 36.7841C115.718 36.7865 116.08 36.8533 116.422 36.9813C116.813 37.1353 117.155 37.3919 117.411 37.724V34.3589H119.342V44.0945H117.469V43.1894ZM117.469 40.4741C117.475 40.1071 117.436 39.7408 117.353 39.3833C117.285 39.1299 117.153 38.8982 116.969 38.7103C116.817 38.5574 116.629 38.4456 116.422 38.3854C116.232 38.3387 116.037 38.3153 115.841 38.3158C115.637 38.3126 115.435 38.3521 115.248 38.4318C115.056 38.5175 114.888 38.649 114.759 38.8148C114.599 39.0163 114.484 39.2497 114.422 39.4994C114.333 39.8323 114.29 40.1759 114.294 40.5205C114.284 40.88 114.323 41.2392 114.41 41.5881C114.474 41.8421 114.584 42.0821 114.736 42.2959C114.86 42.4612 115.024 42.5928 115.213 42.6788C115.402 42.7528 115.603 42.7921 115.806 42.7949C116.232 42.8155 116.649 42.6698 116.969 42.3887C117.153 42.2042 117.289 41.977 117.364 41.7273C117.468 41.4011 117.515 41.0597 117.504 40.7178L117.469 40.4741Z" fill="white"/>
<path d="M123.087 44.5818C123.11 44.7384 123.166 44.8884 123.249 45.0228C123.317 45.1275 123.409 45.2149 123.517 45.2781C123.646 45.3507 123.788 45.398 123.936 45.4173C124.129 45.431 124.324 45.431 124.517 45.4173C124.811 45.4346 125.103 45.3617 125.355 45.2084C125.551 45.0826 125.705 44.9006 125.797 44.6863C125.903 44.448 125.966 44.1925 125.983 43.932C125.983 43.6535 125.983 43.3634 125.983 43.0617V42.9341C125.749 43.271 125.433 43.5426 125.064 43.7232C124.67 43.9037 124.241 43.9948 123.808 43.99C123.381 44.0194 122.953 43.9462 122.561 43.7766C122.168 43.607 121.822 43.346 121.551 43.0153C121.017 42.2484 120.755 41.3254 120.807 40.3929C120.803 39.9054 120.874 39.4202 121.016 38.954C121.142 38.5298 121.351 38.1352 121.633 37.7936C121.898 37.4753 122.232 37.2214 122.61 37.051C123.024 36.869 123.472 36.7779 123.924 36.7841C124.322 36.7819 124.717 36.8568 125.087 37.0045C125.483 37.1832 125.824 37.4635 126.076 37.8168V37.0045H127.937V43.1546C127.94 43.6977 127.877 44.2392 127.751 44.7675C127.634 45.1906 127.432 45.5855 127.157 45.9279C126.878 46.2663 126.513 46.5229 126.099 46.6705C125.593 46.8547 125.056 46.9414 124.517 46.9258C124.021 46.9341 123.526 46.8874 123.04 46.7866C122.676 46.7107 122.331 46.5606 122.028 46.3456C121.769 46.151 121.561 45.896 121.423 45.603C121.274 45.2763 121.18 44.9274 121.144 44.5702L123.087 44.5818ZM126.029 40.3116C126.043 39.9573 125.991 39.6034 125.878 39.2673C125.803 39.0399 125.675 38.8332 125.506 38.6639C125.358 38.5275 125.178 38.4315 124.982 38.3854C124.808 38.3342 124.629 38.3031 124.447 38.2926C124.241 38.2904 124.036 38.3258 123.843 38.397C123.651 38.4716 123.482 38.5958 123.354 38.7567C123.201 38.9409 123.086 39.154 123.017 39.3833C122.928 39.6807 122.885 39.9898 122.889 40.3C122.837 40.8715 122.989 41.443 123.319 41.913C123.455 42.0652 123.621 42.1865 123.808 42.2686C123.995 42.3507 124.197 42.3916 124.401 42.3887C124.626 42.3907 124.85 42.3555 125.064 42.2843C125.266 42.216 125.45 42.1007 125.599 41.9478C125.752 41.7809 125.867 41.583 125.936 41.3676C126.025 41.0822 126.068 40.7845 126.064 40.4857L126.029 40.3116Z" fill="white"/>
<path d="M136.194 41.9013C136.117 42.6091 135.771 43.2606 135.229 43.7231C134.572 44.1851 133.775 44.4065 132.973 44.3498C132.48 44.3842 131.986 44.3142 131.523 44.1442C131.06 43.9741 130.638 43.708 130.286 43.3634C129.647 42.5758 129.328 41.578 129.39 40.5669C129.381 40.0223 129.467 39.4802 129.646 38.9656C129.807 38.5324 130.057 38.1373 130.379 37.8052C130.706 37.4707 131.103 37.2131 131.542 37.051C132.007 36.8797 132.5 36.7932 132.996 36.7957C133.453 36.765 133.912 36.8342 134.34 36.9985C134.768 37.1629 135.155 37.4184 135.473 37.7472C136.053 38.4638 136.347 39.3688 136.299 40.2884V41.0543H131.309C131.298 41.5437 131.454 42.0225 131.751 42.4119C131.907 42.5792 132.099 42.7089 132.313 42.7913C132.527 42.8737 132.756 42.9067 132.984 42.8877C133.136 42.9143 133.291 42.9107 133.441 42.8772C133.59 42.8437 133.732 42.7809 133.858 42.6925C133.983 42.604 134.09 42.4916 134.171 42.3618C134.253 42.232 134.308 42.0873 134.333 41.9362L136.194 41.9013ZM134.426 39.7662C134.453 39.3484 134.325 38.9354 134.066 38.6059C133.915 38.4546 133.733 38.3386 133.532 38.2664C133.33 38.1941 133.116 38.1674 132.903 38.1881C132.675 38.1843 132.45 38.2278 132.24 38.3158C132.058 38.3936 131.894 38.5065 131.756 38.6478C131.619 38.7892 131.51 38.9564 131.437 39.1396C131.364 39.3369 131.32 39.5443 131.309 39.7546L134.426 39.7662Z" fill="white"/>
<path d="M140.928 34.3589H144.417C145.02 34.3459 145.623 34.4123 146.208 34.5562C146.634 34.6568 147.031 34.851 147.371 35.1247C147.635 35.3453 147.832 35.6345 147.941 35.9602C148.047 36.2942 148.098 36.6429 148.092 36.993C148.095 37.3703 148.011 37.7432 147.848 38.0837C147.64 38.4635 147.313 38.7651 146.918 38.9424C147.179 39.0718 147.422 39.2357 147.639 39.4298C147.812 39.586 147.958 39.7704 148.069 39.9751C148.175 40.1549 148.249 40.351 148.29 40.5553C148.336 40.7533 148.359 40.9556 148.36 41.1587C148.36 41.5529 148.297 41.9445 148.174 42.3191C148.05 42.6822 147.839 43.0091 147.557 43.2706C147.22 43.5616 146.823 43.7754 146.394 43.8972C145.837 44.0691 145.256 44.1475 144.673 44.1293H140.905L140.928 34.3589ZM144.696 38.2926C144.901 38.3209 145.108 38.3089 145.308 38.2571C145.507 38.2054 145.695 38.1149 145.859 37.9909C145.967 37.8741 146.049 37.7366 146.101 37.587C146.153 37.4373 146.174 37.2786 146.162 37.1206C146.178 36.957 146.15 36.792 146.08 36.643C146.011 36.494 145.902 36.3664 145.766 36.2735C145.36 36.0685 144.905 35.9801 144.452 36.0182H142.963V38.339L144.696 38.2926ZM144.627 42.586C144.908 42.5906 145.19 42.5594 145.464 42.4932C145.662 42.4363 145.848 42.3417 146.011 42.2147C146.142 42.0982 146.242 41.9505 146.301 41.7853C146.354 41.6002 146.381 41.409 146.383 41.2167C146.396 41.0425 146.371 40.8675 146.311 40.7035C146.251 40.5394 146.156 40.39 146.034 40.2652C145.7 40.0152 145.287 39.8956 144.871 39.9287H142.952V42.586H144.627Z" fill="white"/>
<path d="M156.222 41.9014C156.145 42.6091 155.799 43.2606 155.257 43.7232C154.578 44.1955 153.756 44.4171 152.931 44.3498C152.44 44.3879 151.947 44.3195 151.485 44.1492C151.023 43.9789 150.604 43.7109 150.256 43.3634C149.612 42.5786 149.292 41.5787 149.36 40.5669C149.351 40.0223 149.437 39.4803 149.616 38.9656C149.777 38.5324 150.027 38.1373 150.349 37.8052C150.675 37.4695 151.072 37.2117 151.512 37.051C151.978 36.8809 152.47 36.7944 152.966 36.7957C153.423 36.7626 153.883 36.8307 154.311 36.9952C154.739 37.1597 155.126 37.4164 155.443 37.7472C156.031 38.46 156.33 39.3667 156.28 40.2884V41.0543H151.314C151.3 41.5424 151.451 42.021 151.744 42.4119C151.903 42.5794 152.097 42.7092 152.312 42.7916C152.528 42.8739 152.759 42.9068 152.989 42.8877C153.293 42.9381 153.604 42.8662 153.855 42.6878C154.106 42.5094 154.275 42.2391 154.326 41.9362L156.222 41.9014ZM154.454 39.7663C154.484 39.3462 154.35 38.931 154.082 38.6059C153.933 38.4532 153.75 38.3363 153.549 38.264C153.347 38.1917 153.132 38.1657 152.919 38.1881C152.688 38.1857 152.459 38.2291 152.245 38.3158C152.062 38.3964 151.896 38.5106 151.756 38.6523C151.625 38.7938 151.522 38.9593 151.454 39.1396C151.375 39.3354 151.331 39.5437 151.326 39.7547L154.454 39.7663Z" fill="white"/>
<path d="M157.595 45.1504C157.857 45.2194 158.126 45.2545 158.397 45.2549C158.618 45.2682 158.837 45.2023 159.014 45.0692C159.206 44.8937 159.347 44.669 159.421 44.4194L159.642 43.816L156.664 36.9814H158.886L160.56 41.6809L162.119 36.9814H164.224L161.328 44.3382C161.165 44.7443 161.002 45.104 160.863 45.4173C160.731 45.6934 160.562 45.9509 160.363 46.1832C160.171 46.378 159.941 46.5319 159.688 46.6357C159.379 46.7458 159.051 46.7969 158.723 46.7866C158.233 46.7944 157.746 46.7199 157.281 46.5661L157.595 45.1504Z" fill="white"/>
<path d="M168.144 44.3498C167.653 44.3826 167.161 44.3117 166.7 44.1417C166.239 43.9717 165.82 43.7065 165.469 43.3634C164.796 42.5832 164.458 41.5705 164.526 40.5437C164.517 40.0066 164.603 39.4722 164.782 38.9656C164.935 38.5311 165.181 38.1351 165.503 37.8052C165.831 37.4743 166.228 37.2206 166.667 37.0626C167.141 36.8808 167.647 36.7902 168.155 36.7957C168.671 36.7903 169.184 36.8809 169.667 37.0626C170.104 37.2233 170.501 37.4767 170.83 37.8052C171.149 38.1358 171.391 38.5318 171.54 38.9656C171.719 39.4722 171.805 40.0066 171.796 40.5437C171.799 41.0879 171.713 41.629 171.54 42.145C171.377 42.5776 171.128 42.9725 170.807 43.3054C170.479 43.6384 170.082 43.8958 169.644 44.0597C169.166 44.2481 168.657 44.3465 168.144 44.3498ZM168.144 42.8181C168.383 42.8333 168.622 42.7869 168.838 42.6832C169.054 42.5796 169.239 42.4222 169.376 42.2263C169.676 41.7179 169.818 41.1324 169.784 40.5437C169.819 39.9585 169.678 39.3762 169.376 38.8728C169.236 38.6819 169.049 38.5297 168.833 38.4303C168.618 38.3308 168.38 38.2875 168.144 38.3042C167.918 38.2971 167.694 38.3452 167.491 38.4444C167.289 38.5435 167.113 38.6905 166.981 38.8728C166.674 39.3739 166.531 39.958 166.573 40.5437C166.534 41.135 166.672 41.7246 166.969 42.2379C167.102 42.4231 167.279 42.5729 167.484 42.6741C167.689 42.7753 167.915 42.8247 168.144 42.8181Z" fill="white"/>
<path d="M173.226 36.9813H175.087V37.9677C175.331 37.6049 175.662 37.3088 176.05 37.1062C176.438 36.9035 176.871 36.8008 177.309 36.8073C177.639 36.7821 177.971 36.8258 178.283 36.9357C178.595 37.0456 178.881 37.2192 179.123 37.4455C179.566 38.0167 179.778 38.7332 179.716 39.4529V44.0945H177.797V39.6734C177.837 39.3046 177.733 38.9347 177.506 38.6407C177.297 38.4502 177.021 38.3501 176.739 38.3622C176.52 38.3605 176.303 38.3999 176.099 38.4782C175.915 38.5516 175.745 38.6578 175.599 38.7915C175.466 38.9275 175.356 39.0843 175.273 39.2557C175.188 39.4374 175.145 39.6355 175.145 39.8359V44.0945H173.226V36.9813Z" fill="white"/>
<path d="M186.311 43.1894C186.071 43.5567 185.741 43.8564 185.352 44.0597C184.963 44.2629 184.528 44.3628 184.089 44.3498C183.66 44.3802 183.231 44.3039 182.839 44.1277C182.447 43.9515 182.105 43.6809 181.844 43.3402C181.302 42.5078 181.041 41.5235 181.1 40.5321C181.095 40.0141 181.165 39.4981 181.309 39.0004C181.444 38.58 181.652 38.1869 181.926 37.84C182.188 37.51 182.522 37.244 182.903 37.0626C183.31 36.8712 183.756 36.7759 184.205 36.7841C184.567 36.7876 184.925 36.8544 185.264 36.9813C185.657 37.1375 186.001 37.3935 186.264 37.724V34.3589H188.183V44.0945H186.311V43.1894ZM186.311 40.4741C186.323 40.1069 186.284 39.7398 186.194 39.3833C186.126 39.1299 185.994 38.8982 185.81 38.7103C185.663 38.5579 185.479 38.446 185.275 38.3854C185.085 38.3401 184.89 38.3167 184.694 38.3158C184.487 38.3139 184.281 38.3534 184.089 38.4318C183.897 38.5175 183.729 38.649 183.601 38.8148C183.445 39.019 183.33 39.2516 183.263 39.4994C183.174 39.8323 183.131 40.1759 183.135 40.5205C183.131 40.8797 183.17 41.2382 183.252 41.5881C183.315 41.8421 183.426 42.0821 183.577 42.2959C183.705 42.4586 183.868 42.5897 184.054 42.6788C184.243 42.7528 184.444 42.7921 184.647 42.7949C184.987 42.8168 185.323 42.7231 185.602 42.5291C185.881 42.3352 186.086 42.0525 186.183 41.7273C186.276 41.3991 186.319 41.0588 186.311 40.7178V40.4741Z" fill="white"/>
<path d="M193.068 34.3589H195.534L197.976 41.6577L200.488 34.3589H202.814V44.0945H200.93V37.6196L198.779 44.0945H197.185L194.929 37.5964V44.0945H193.068V34.3589Z" fill="white"/>
<path d="M211.305 41.9013C211.227 42.6091 210.882 43.2606 210.339 43.7231C209.682 44.1851 208.885 44.4065 208.083 44.3498C207.591 44.3842 207.097 44.3142 206.634 44.1442C206.171 43.9741 205.749 43.708 205.396 43.3634C204.758 42.5758 204.438 41.578 204.501 40.5669C204.491 40.0223 204.578 39.4802 204.757 38.9656C204.918 38.5324 205.167 38.1373 205.489 37.8052C205.816 37.4707 206.214 37.2131 206.653 37.051C207.118 36.8797 207.61 36.7932 208.106 36.7957C208.564 36.765 209.022 36.8342 209.45 36.9985C209.878 37.1629 210.265 37.4184 210.584 37.7472C211.163 38.4638 211.458 39.3688 211.409 40.2884V41.0543H206.443C206.432 41.5437 206.588 42.0225 206.885 42.4119C207.041 42.5792 207.233 42.7089 207.447 42.7913C207.66 42.8737 207.89 42.9067 208.118 42.8877C208.269 42.9143 208.424 42.9107 208.574 42.8772C208.724 42.8437 208.866 42.7809 208.991 42.6925C209.117 42.604 209.223 42.4916 209.305 42.3618C209.387 42.232 209.442 42.0873 209.467 41.9362L211.305 41.9013ZM209.537 39.7662C209.564 39.3484 209.435 38.9354 209.176 38.6059C209.026 38.4546 208.843 38.3386 208.642 38.2664C208.441 38.1941 208.226 38.1674 208.013 38.1881C207.786 38.1843 207.56 38.2278 207.35 38.3158C207.169 38.3936 207.004 38.5065 206.867 38.6478C206.729 38.7892 206.621 38.9564 206.548 39.1396C206.474 39.3369 206.431 39.5443 206.42 39.7546L209.537 39.7662Z" fill="white"/>
<path d="M217.085 43.2242C216.812 43.537 216.49 43.8035 216.131 44.0133C215.711 44.228 215.243 44.3319 214.771 44.315C214.46 44.3148 214.151 44.2719 213.852 44.1873C213.577 44.1118 213.319 43.9816 213.096 43.8044C212.879 43.6234 212.705 43.3978 212.584 43.143C212.448 42.8361 212.381 42.5036 212.386 42.1683C212.376 41.756 212.494 41.3506 212.724 41.0079C212.942 40.6935 213.238 40.4415 213.584 40.2768C213.954 40.1026 214.345 39.9778 214.747 39.9055C215.198 39.8349 215.652 39.7884 216.108 39.7663H217.027V39.3369C217.047 39.167 217.023 38.9947 216.958 38.8364C216.893 38.6781 216.789 38.5388 216.655 38.4318C216.403 38.2668 216.107 38.1818 215.806 38.1881C215.038 38.1881 214.643 38.4782 214.492 39.0468L212.735 38.8844C212.776 38.5593 212.885 38.2465 213.055 37.9665C213.226 37.6865 213.454 37.4457 213.724 37.2598C214.378 36.9009 215.118 36.7283 215.864 36.7609C216.341 36.7511 216.816 36.8177 217.271 36.9581C217.618 37.073 217.933 37.2678 218.19 37.5267C218.434 37.7812 218.609 38.0923 218.702 38.4318C218.811 38.8089 218.866 39.1996 218.865 39.5922V44.0945H217.05L217.085 43.2242ZM217.085 40.9034H216.236C215.911 40.9098 215.588 40.9486 215.271 41.0195C215.065 41.0691 214.869 41.1514 214.689 41.2632C214.568 41.3431 214.478 41.4618 214.433 41.5997C214.385 41.7375 214.361 41.8829 214.364 42.029C214.359 42.1342 214.379 42.239 214.422 42.3355C214.464 42.432 214.528 42.5176 214.608 42.586C214.804 42.735 215.048 42.8091 215.294 42.7949C215.709 42.8026 216.115 42.6809 216.457 42.4467C216.638 42.3123 216.785 42.1372 216.886 41.9357C216.987 41.7341 217.04 41.5117 217.039 41.2864L217.085 40.9034Z" fill="white"/>
<path d="M221.912 41.8549C221.919 42.0246 221.97 42.1896 222.059 42.3339C222.149 42.4783 222.274 42.597 222.424 42.6788C222.735 42.8159 223.072 42.8832 223.412 42.8761C223.747 42.8999 224.083 42.84 224.389 42.702C224.486 42.6463 224.566 42.5647 224.62 42.4663C224.673 42.3679 224.698 42.2567 224.692 42.145C224.69 41.9691 224.624 41.7998 224.505 41.6693C224.306 41.4998 224.057 41.3982 223.796 41.3792L222.807 41.2167C222.111 41.1451 221.444 40.9018 220.865 40.5089C220.648 40.3247 220.477 40.0924 220.366 39.8304C220.255 39.5685 220.207 39.2842 220.225 39.0004C220.223 38.6726 220.303 38.3493 220.458 38.0605C220.616 37.7837 220.835 37.5458 221.098 37.3643C221.396 37.1627 221.726 37.0136 222.075 36.9233C222.484 36.8135 222.907 36.7589 223.331 36.7609C223.814 36.7497 224.295 36.8083 224.761 36.9349C225.1 37.0251 225.416 37.183 225.692 37.3991C225.93 37.5795 226.121 37.8143 226.25 38.0837C226.37 38.3553 226.46 38.6394 226.518 38.9308L224.796 39.1513C224.743 38.8647 224.591 38.606 224.366 38.4202C224.064 38.2424 223.715 38.1614 223.366 38.1881C223.155 38.1857 222.944 38.2051 222.738 38.2462C222.596 38.2829 222.459 38.3375 222.331 38.4086C222.247 38.4638 222.179 38.5398 222.133 38.6291C222.09 38.6991 222.066 38.7791 222.063 38.8612C222.054 38.9563 222.069 39.0521 222.108 39.1395C222.147 39.2269 222.207 39.3028 222.284 39.3601C222.538 39.5053 222.819 39.5962 223.11 39.627L224.017 39.7779C224.442 39.8392 224.859 39.9442 225.261 40.0912C225.554 40.1954 225.823 40.3572 226.052 40.5669C226.247 40.7475 226.391 40.9754 226.471 41.2283C226.549 41.5197 226.588 41.8202 226.587 42.1218C226.595 42.4347 226.529 42.745 226.393 43.0274C226.258 43.3097 226.057 43.5561 225.808 43.7464C225.119 44.1938 224.302 44.4056 223.482 44.3498C223.072 44.3536 222.663 44.3147 222.261 44.2337C221.889 44.1658 221.534 44.028 221.214 43.8276C220.905 43.6349 220.646 43.3725 220.458 43.0617C220.256 42.7067 220.14 42.3092 220.121 41.9014L221.912 41.8549Z" fill="white"/>
<path d="M227.832 36.9814H229.751V41.4488C229.706 41.8162 229.806 42.1864 230.03 42.4816C230.132 42.574 230.251 42.6452 230.381 42.691C230.511 42.7368 230.649 42.7564 230.786 42.7484C230.993 42.7549 231.198 42.7194 231.391 42.644C231.561 42.5585 231.717 42.4491 231.856 42.3191C231.997 42.1892 232.115 42.0361 232.205 41.8666C232.29 41.6848 232.333 41.4868 232.333 41.2864V36.9814H234.252V44.0945H232.391V43.1082C232.165 43.5109 231.841 43.8501 231.449 44.0945C231.091 44.2843 230.691 44.3839 230.286 44.3846C229.957 44.4118 229.627 44.3689 229.316 44.2589C229.005 44.1489 228.721 43.9742 228.483 43.7464C228.052 43.1699 227.849 42.4552 227.913 41.7389L227.832 36.9814Z" fill="white"/>
<path d="M235.962 36.9813H237.823V37.9793C238.031 37.6304 238.328 37.3423 238.683 37.1438C239.01 36.9615 239.379 36.8656 239.753 36.8653H240.207H240.521L240.288 38.5943C240.024 38.5388 239.755 38.5116 239.486 38.513C239.282 38.5157 239.079 38.543 238.881 38.5943C238.685 38.6404 238.505 38.7364 238.358 38.8728C238.206 39.0038 238.085 39.1661 238.003 39.3484C237.92 39.5308 237.879 39.7287 237.881 39.9287V44.0945H235.962V36.9813Z" fill="white"/>
<path d="M247.93 41.9014C247.848 42.6104 247.498 43.2618 246.953 43.7232C246.295 44.1852 245.498 44.4065 244.696 44.3498C244.205 44.3879 243.712 44.3195 243.25 44.1492C242.789 43.9789 242.369 43.7109 242.021 43.3634C241.373 42.5803 241.049 41.5803 241.114 40.5669C241.108 40.0216 241.199 39.4795 241.381 38.9656C241.543 38.5324 241.792 38.1373 242.114 37.8052C242.438 37.467 242.836 37.2087 243.277 37.051C243.743 36.8809 244.235 36.7944 244.731 36.7957C245.189 36.7626 245.648 36.8307 246.076 36.9952C246.505 37.1597 246.891 37.4164 247.208 37.7472C247.796 38.46 248.095 39.3667 248.046 40.2884V41.0543H243.08C243.074 41.5429 243.229 42.02 243.522 42.4119C243.678 42.5785 243.87 42.7078 244.084 42.7901C244.297 42.8725 244.526 42.9058 244.754 42.8877C244.906 42.9143 245.061 42.9108 245.211 42.8772C245.361 42.8437 245.502 42.7809 245.628 42.6925C245.753 42.604 245.86 42.4916 245.941 42.3618C246.023 42.232 246.078 42.0873 246.104 41.9362L247.93 41.9014ZM246.15 39.7663C246.182 39.3478 246.053 38.9327 245.789 38.6059C245.64 38.4532 245.457 38.3363 245.256 38.264C245.055 38.1917 244.839 38.1657 244.626 38.1881C244.395 38.1844 244.166 38.2278 243.952 38.3158C243.766 38.3907 243.599 38.5056 243.463 38.6523C243.332 38.7962 243.226 38.9609 243.149 39.1396C243.079 39.3376 243.04 39.5449 243.033 39.7547L246.15 39.7663Z" fill="white"/>
<path d="M249.034 41.9246H251V44.0945H249.034V41.9246Z" fill="white"/>
</g>
<defs>
<clipPath id="clip0_1146_165">
<rect width="251" height="56" fill="white"/>
</clipPath>
</defs>
</svg>
